<svg width="35" height="35" viewBox="0 0 35 35" fill="none" xmlns="http://www.w3.org/2000/svg">
<mask id="path-1-inside-1_33_2416" fill="white">
<path fill-rule="evenodd" clip-rule="evenodd" d="M1.8272 16.7808C0.567848 15.3247 0 13.5313 0 10.9075C0 4.88347 3.76965 0 9.55592 0C13.2065 0 15.9627 1.94378 17.5 4.89144C19.0373 1.94378 21.7935 0 25.4441 0C31.2304 0 35 4.88347 35 10.9075C35 13.5601 34.0848 15.6197 32.5689 17.2579L17.3849 35L1.79258 16.7808H1.8272Z"/>
</mask>
<path fill-rule="evenodd" clip-rule="evenodd" d="M1.8272 16.7808C0.567848 15.3247 0 13.5313 0 10.9075C0 4.88347 3.76965 0 9.55592 0C13.2065 0 15.9627 1.94378 17.5 4.89144C19.0373 1.94378 21.7935 0 25.4441 0C31.2304 0 35 4.88347 35 10.9075C35 13.5601 34.0848 15.6197 32.5689 17.2579L17.3849 35L1.79258 16.7808H1.8272Z" fill="#EEEEEA"/>
<path d="M1.8272 16.7808V18.2808H5.10774L2.96173 15.7996L1.8272 16.7808ZM17.5 4.89144L16.17 5.58508L17.5 8.13522L18.83 5.58508L17.5 4.89144ZM32.5689 17.2579L31.4679 16.2391L31.4482 16.2605L31.4292 16.2826L32.5689 17.2579ZM17.3849 35L16.2452 35.9753L17.3849 37.3069L18.5245 35.9753L17.3849 35ZM1.79258 16.7808V15.2808H-1.46546L0.652952 17.7561L1.79258 16.7808ZM2.96173 15.7996C2.0077 14.6965 1.5 13.2938 1.5 10.9075H-1.5C-1.5 13.7687 -0.87201 15.953 0.692673 17.7621L2.96173 15.7996ZM1.5 10.9075C1.5 5.46317 4.82663 1.5 9.55592 1.5V-1.5C2.71266 -1.5 -1.5 4.30377 -1.5 10.9075H1.5ZM9.55592 1.5C12.5938 1.5 14.8654 3.08351 16.17 5.58508L18.83 4.19781C17.06 0.804057 13.8191 -1.5 9.55592 -1.5V1.5ZM18.83 5.58508C20.1346 3.08351 22.4062 1.5 25.4441 1.5V-1.5C21.1809 -1.5 17.94 0.804057 16.17 4.19781L18.83 5.58508ZM25.4441 1.5C30.1734 1.5 33.5 5.46317 33.5 10.9075H36.5C36.5 4.30377 32.2873 -1.5 25.4441 -1.5V1.5ZM33.5 10.9075C33.5 13.1709 32.7352 14.8696 31.4679 16.2391L33.6698 18.2766C35.4344 16.3697 36.5 13.9493 36.5 10.9075H33.5ZM31.4292 16.2826L16.2452 34.0247L18.5245 35.9753L33.7085 18.2332L31.4292 16.2826ZM18.5245 34.0247L2.93221 15.8055L0.652952 17.7561L16.2452 35.9753L18.5245 34.0247ZM1.79258 18.2808H1.8272V15.2808H1.79258V18.2808Z" fill="black" mask="url(#path-1-inside-1_33_2416)"/>
</svg>
