<svg width="32" height="35" viewBox="0 0 32 35" fill="none" xmlns="http://www.w3.org/2000/svg">
<path fill-rule="evenodd" clip-rule="evenodd" d="M26.8649 14.1825C26.8649 21.1868 21.1868 26.8649 14.1825 26.8649C7.17813 26.8649 1.5 21.1868 1.5 14.1825C1.5 7.17813 7.17813 1.5 14.1825 1.5C21.1868 1.5 26.8649 7.17813 26.8649 14.1825ZM22.5356 25.6453C20.1926 27.3556 17.3054 28.3649 14.1825 28.3649C6.3497 28.3649 0 22.0152 0 14.1825C0 6.34971 6.3497 0 14.1825 0C22.0152 0 28.3649 6.34971 28.3649 14.1825C28.3649 18.3531 26.5647 22.1032 23.6989 24.6983L31.4544 34.042L30.3001 35L22.5356 25.6453Z" fill="black"/>
</svg>
