<svg width="35" height="35" viewBox="0 0 35 35" fill="none" xmlns="http://www.w3.org/2000/svg">
<rect x="1.72217" y="14.75" width="31.5556" height="19.5" fill="#EEEEEA" stroke="black" stroke-width="1.5"/>
<mask id="path-2-inside-1_33_2415" fill="white">
<path fill-rule="evenodd" clip-rule="evenodd" d="M31.7029 0H3.2971L0.179592 9.92807C0.0663963 10.0901 0 10.2873 0 10.5V14.5C0 16.7091 1.74111 18.5 3.88889 18.5C5.35306 18.5 6.62825 17.6677 7.29166 16.438C7.95507 17.6677 9.23026 18.5 10.6944 18.5C12.1586 18.5 13.4338 17.6677 14.0972 16.438C14.7606 17.6677 16.0358 18.5 17.5 18.5C18.9642 18.5 20.2394 17.6677 20.9028 16.438C21.5662 17.6677 22.8414 18.5 24.3056 18.5C25.7698 18.5 27.0449 17.6677 27.7083 16.438C28.3718 17.6677 29.6469 18.5 31.1111 18.5C33.2589 18.5 35 16.7091 35 14.5L35 14.492V10.5C35 10.2873 34.9336 10.0901 34.8204 9.92807L31.7029 0Z"/>
</mask>
<path fill-rule="evenodd" clip-rule="evenodd" d="M31.7029 0H3.2971L0.179592 9.92807C0.0663963 10.0901 0 10.2873 0 10.5V14.5C0 16.7091 1.74111 18.5 3.88889 18.5C5.35306 18.5 6.62825 17.6677 7.29166 16.438C7.95507 17.6677 9.23026 18.5 10.6944 18.5C12.1586 18.5 13.4338 17.6677 14.0972 16.438C14.7606 17.6677 16.0358 18.5 17.5 18.5C18.9642 18.5 20.2394 17.6677 20.9028 16.438C21.5662 17.6677 22.8414 18.5 24.3056 18.5C25.7698 18.5 27.0449 17.6677 27.7083 16.438C28.3718 17.6677 29.6469 18.5 31.1111 18.5C33.2589 18.5 35 16.7091 35 14.5L35 14.492V10.5C35 10.2873 34.9336 10.0901 34.8204 9.92807L31.7029 0Z" fill="#EEEEEA"/>
<path d="M3.2971 0V-1.5H2.1959L1.866 -0.44938L3.2971 0ZM31.7029 0L33.134 -0.44938L32.8041 -1.5H31.7029V0ZM0.179592 9.92807L1.40935 10.787L1.54153 10.5977L1.6107 10.3774L0.179592 9.92807ZM7.29166 16.438L8.6118 15.7258L7.29166 13.2788L5.97152 15.7258L7.29166 16.438ZM14.0972 16.438L15.4173 15.7258L14.0972 13.2788L12.7771 15.7258L14.0972 16.438ZM20.9028 16.438L22.2229 15.7258L20.9028 13.2786L19.5826 15.7258L20.9028 16.438ZM27.7083 16.438L29.0285 15.7258L27.7083 13.2788L26.3882 15.7258L27.7083 16.438ZM35 14.5H36.5V14.4986L35 14.5ZM35 14.492H33.5V14.4934L35 14.492ZM34.8204 9.92807L33.3893 10.3774L33.4585 10.5977L33.5906 10.787L34.8204 9.92807ZM3.2971 1.5H31.7029V-1.5H3.2971V1.5ZM1.6107 10.3774L4.7282 0.44938L1.866 -0.44938L-1.25151 9.47869L1.6107 10.3774ZM-1.05016 9.06917C-1.33356 9.47494 -1.5 9.97028 -1.5 10.5H1.5C1.5 10.6044 1.46636 10.7053 1.40935 10.787L-1.05016 9.06917ZM-1.5 10.5V14.5H1.5V10.5H-1.5ZM-1.5 14.5C-1.5 17.4975 0.873135 20 3.88889 20V17C2.60909 17 1.5 15.9208 1.5 14.5H-1.5ZM3.88889 20C5.94129 20 7.70455 18.8319 8.6118 17.1502L5.97152 15.7258C5.55195 16.5035 4.76484 17 3.88889 17V20ZM5.97152 17.1502C6.87877 18.8319 8.64203 20 10.6944 20V17C9.81848 17 9.03137 16.5035 8.6118 15.7258L5.97152 17.1502ZM10.6944 20C12.7468 20 14.5101 18.8319 15.4173 17.1502L12.7771 15.7258C12.3575 16.5035 11.5704 17 10.6944 17V20ZM12.7771 17.1502C13.6843 18.8319 15.4476 20 17.5 20V17C16.624 17 15.8369 16.5035 15.4173 15.7258L12.7771 17.1502ZM17.5 20C19.5524 20 21.3157 18.8319 22.2229 17.1501L19.5826 15.7258C19.1631 16.5035 18.3759 17 17.5 17V20ZM19.5826 17.1501C20.4899 18.8319 22.2531 20 24.3056 20V17C23.4296 17 22.6425 16.5035 22.2229 15.7258L19.5826 17.1501ZM24.3056 20C26.358 20 28.1212 18.8319 29.0285 17.1502L26.3882 15.7258C25.9686 16.5035 25.1815 17 24.3056 17V20ZM26.3882 17.1502C27.2955 18.8319 29.0587 20 31.1111 20V17C30.2352 17 29.4481 16.5035 29.0285 15.7258L26.3882 17.1502ZM31.1111 20C34.1269 20 36.5 17.4975 36.5 14.5H33.5C33.5 15.9208 32.3909 17 31.1111 17V20ZM36.5 14.4986L36.5 14.4906L33.5 14.4934L33.5 14.5014L36.5 14.4986ZM36.5 14.492V10.5H33.5V14.492H36.5ZM36.5 10.5C36.5 9.97027 36.3336 9.47494 36.0502 9.06918L33.5906 10.787C33.5336 10.7053 33.5 10.6044 33.5 10.5H36.5ZM30.2718 0.44938L33.3893 10.3774L36.2515 9.47869L33.134 -0.44938L30.2718 0.44938Z" fill="black" mask="url(#path-2-inside-1_33_2415)"/>
<rect x="6.58325" y="20.75" width="6.27778" height="13.5" fill="#EEEEEA" stroke="black" stroke-width="1.5"/>
<rect x="18.25" y="20.75" width="10.1667" height="8" fill="#EEEEEA" stroke="black" stroke-width="1.5"/>
<path d="M7.29175 15.5V10L8.75008 0.5M14.0973 15.5V10L14.5834 0.5M20.9029 15.5V10L20.4167 0.5M27.7084 15.5V10L26.2501 0.5" stroke="black" stroke-width="1.5"/>
<line x1="0.972168" y1="10.25" x2="34.5138" y2="10.25" stroke="black" stroke-width="1.5"/>
</svg>
