<svg xmlns="http://www.w3.org/2000/svg" xmlns:xlink="http://www.w3.org/1999/xlink" id="Layer_1" x="0" y="0" version="1.1" viewBox="0 0 1000 1000" style="enable-background:new 0 0 1000 1000" xml:space="preserve"><style type="text/css">.st0{fill:none;stroke:#000;stroke-width:37.6748;stroke-linejoin:round;stroke-miterlimit:10}</style><g><polygon points="962.4 328 34.4 328 158 78.3 838.7 78.3" class="st0"/><path d="M869.6,525.7L869.6,525.7c-51.3,0-92.8-41.5-92.8-92.8V328h185.6v104.9C962.4,484.2,920.8,525.7,869.6,525.7z" class="st0"/><polyline points="100.5 523.7 100.5 921.7 896.3 921.7 896.3 517.7" class="st0"/><path d="M127.2,525.7L127.2,525.7c-51.3,0-92.8-41.5-92.8-92.8V328H220v104.9C220,484.2,178.4,525.7,127.2,525.7z" class="st0"/><path d="M312.8,525.7L312.8,525.7c-51.3,0-92.8-41.5-92.8-92.8V328h185.6v104.9C405.6,484.2,364,525.7,312.8,525.7z" class="st0"/><path d="M498.4,525.7L498.4,525.7c-51.3,0-92.8-41.5-92.8-92.8V328h185.6v104.9C591.2,484.2,549.6,525.7,498.4,525.7z" class="st0"/><path d="M684,525.7L684,525.7c-51.3,0-92.8-41.5-92.8-92.8V328h185.6v104.9C776.8,484.2,735.2,525.7,684,525.7z" class="st0"/><rect width="252.5" height="187.9" x="515.2" y="602.2" class="st0"/><rect width="177.4" height="319.5" x="220" y="602.2" class="st0"/><g><path d="M842,85.5" class="st0"/><path d="M965.6,335.1" class="st0"/><line x1="780" x2="705.8" y1="335.1" y2="85.5" class="st0"/><line x1="594.4" x2="569.7" y1="335.1" y2="85.5" class="st0"/><line x1="408.8" x2="433.5" y1="335.1" y2="85.5" class="st0"/><line x1="223.2" x2="297.4" y1="335.1" y2="85.5" class="st0"/><path d="M161.3,85.5" class="st0"/><path d="M37.6,335.1" class="st0"/></g></g></svg>