<?xml version="1.0" encoding="utf-8"?>
<!-- Generator: Adobe Illustrator 27.3.1, SVG Export Plug-In . SVG Version: 6.00 Build 0)  -->
<svg version="1.1" id="Layer_1" xmlns="http://www.w3.org/2000/svg" xmlns:xlink="http://www.w3.org/1999/xlink" x="0px" y="0px"
	 viewBox="0 0 1000 1000" style="enable-background:new 0 0 1000 1000;" xml:space="preserve">
<style type="text/css">
	.st0{fill:none;stroke:#000000;stroke-width:37.6748;stroke-linejoin:round;stroke-miterlimit:10;}
</style>
<g>
	<polygon class="st0" points="962.4,328 34.4,328 158,78.3 838.7,78.3 	"/>
	<path class="st0" d="M869.6,525.7L869.6,525.7c-51.3,0-92.8-41.5-92.8-92.8V328h185.6v104.9C962.4,484.2,920.8,525.7,869.6,525.7z"
		/>
	<polyline class="st0" points="100.5,523.7 100.5,921.7 896.3,921.7 896.3,517.7 	"/>
	<path class="st0" d="M127.2,525.7L127.2,525.7c-51.3,0-92.8-41.5-92.8-92.8V328H220v104.9C220,484.2,178.4,525.7,127.2,525.7z"/>
	<path class="st0" d="M312.8,525.7L312.8,525.7c-51.3,0-92.8-41.5-92.8-92.8V328h185.6v104.9C405.6,484.2,364,525.7,312.8,525.7z"/>
	<path class="st0" d="M498.4,525.7L498.4,525.7c-51.3,0-92.8-41.5-92.8-92.8V328h185.6v104.9C591.2,484.2,549.6,525.7,498.4,525.7z"
		/>
	<path class="st0" d="M684,525.7L684,525.7c-51.3,0-92.8-41.5-92.8-92.8V328h185.6v104.9C776.8,484.2,735.2,525.7,684,525.7z"/>
	<rect x="515.2" y="602.2" class="st0" width="252.5" height="187.9"/>
	<rect x="220" y="602.2" class="st0" width="177.4" height="319.5"/>
	<g>
		<path class="st0" d="M842,85.5"/>
		<path class="st0" d="M965.6,335.1"/>
		<line class="st0" x1="780" y1="335.1" x2="705.8" y2="85.5"/>
		<line class="st0" x1="594.4" y1="335.1" x2="569.7" y2="85.5"/>
		<line class="st0" x1="408.8" y1="335.1" x2="433.5" y2="85.5"/>
		<line class="st0" x1="223.2" y1="335.1" x2="297.4" y2="85.5"/>
		<path class="st0" d="M161.3,85.5"/>
		<path class="st0" d="M37.6,335.1"/>
	</g>
</g>
</svg>
