<svg width="35" height="35" viewBox="0 0 35 35" fill="none" xmlns="http://www.w3.org/2000/svg">
<circle cx="17.5" cy="17.5" r="16.75" fill="#EEEEEA" stroke="black" stroke-width="1.5"/>
<mask id="path-2-inside-1_33_2417" fill="white">
<path fill-rule="evenodd" clip-rule="evenodd" d="M4.61466 29.3415C6.5027 23.9799 11.6125 20.137 17.6199 20.137C23.5563 20.137 28.6162 23.8897 30.5568 29.1522C33.3202 26.0579 35 21.9751 35 17.5C35 7.83502 27.165 0 17.5 0C7.83502 0 0 7.83502 0 17.5C0 22.067 1.74941 26.2253 4.61466 29.3415ZM23.7329 10.5479C23.7329 13.9903 20.9423 16.7808 17.5 16.7808C14.0577 16.7808 11.2671 13.9903 11.2671 10.5479C11.2671 7.10562 14.0577 4.31507 17.5 4.31507C20.9423 4.31507 23.7329 7.10562 23.7329 10.5479Z"/>
</mask>
<path d="M4.61466 29.3415L3.51048 30.3568L5.20027 32.1946L6.0295 29.8397L4.61466 29.3415ZM30.5568 29.1522L29.1495 29.6712L30.0131 32.0131L31.6756 30.1514L30.5568 29.1522ZM6.0295 29.8397C7.71279 25.0596 12.2686 21.637 17.6199 21.637V18.637C10.9564 18.637 5.29261 22.9002 3.19982 28.8433L6.0295 29.8397ZM17.6199 21.637C22.9079 21.637 27.4192 24.9791 29.1495 29.6712L31.9642 28.6333C29.8133 22.8003 24.2047 18.637 17.6199 18.637V21.637ZM31.6756 30.1514C34.675 26.7928 36.5 22.3577 36.5 17.5H33.5C33.5 21.5925 31.9655 25.323 29.438 28.1531L31.6756 30.1514ZM36.5 17.5C36.5 7.00659 27.9934 -1.5 17.5 -1.5V1.5C26.3366 1.5 33.5 8.66344 33.5 17.5H36.5ZM17.5 -1.5C7.00659 -1.5 -1.5 7.00659 -1.5 17.5H1.5C1.5 8.66344 8.66344 1.5 17.5 1.5V-1.5ZM-1.5 17.5C-1.5 22.4576 0.4007 26.9746 3.51048 30.3568L5.71885 28.3262C3.09812 25.476 1.5 21.6763 1.5 17.5H-1.5ZM17.5 18.2808C21.7708 18.2808 25.2329 14.8187 25.2329 10.5479H22.2329C22.2329 13.1618 20.1139 15.2808 17.5 15.2808V18.2808ZM9.76712 10.5479C9.76712 14.8187 13.2292 18.2808 17.5 18.2808V15.2808C14.8861 15.2808 12.7671 13.1618 12.7671 10.5479H9.76712ZM17.5 2.81507C13.2292 2.81507 9.76712 6.2772 9.76712 10.5479H12.7671C12.7671 7.93405 14.8861 5.81507 17.5 5.81507V2.81507ZM25.2329 10.5479C25.2329 6.2772 21.7708 2.81507 17.5 2.81507V5.81507C20.1139 5.81507 22.2329 7.93405 22.2329 10.5479H25.2329Z" fill="black" mask="url(#path-2-inside-1_33_2417)"/>
</svg>
