<?xml version="1.0" encoding="utf-8"?>
<!-- Generator: Adobe Illustrator 27.3.1, SVG Export Plug-In . SVG Version: 6.00 Build 0)  -->
<svg version="1.1" id="Layer_1" xmlns="http://www.w3.org/2000/svg" xmlns:xlink="http://www.w3.org/1999/xlink" x="0px" y="0px"
	 viewBox="0 0 931 247" style="enable-background:new 0 0 931 247;" xml:space="preserve">
<style type="text/css">
	.st0{fill:#1CBE4F;}
</style>
<g>
	<path class="st0" d="M24,218.5V12.9c0-2.9-1-3.9-4.2-4.2L0,7.4V1.6l47.3-1.3C51.5,0,56.3,0,57.9,0c3.2,0,4.5,1.3,4.5,3.9v112h1.3
		c8.1-17.2,24.6-27.2,44-27.2c39.2,0,69.3,29.5,69.3,79c0,46.9-34,79.3-75.8,79.3c-24.6,0-44.3-13.6-53.1-26.5h-1.3l-21,26.2h-3.6
		C23.3,237.6,24,228.5,24,218.5z M124,226.6c8.4-12.3,11.3-32.7,11.3-59.6c0-28.8-3.6-49.2-11.3-59.6c-5.8-7.1-13.3-10.4-23-10.4
		c-13.6,0-24.9,8.1-32,22c-4.2,8.4-6.5,18.8-6.5,33.3v35c0,16.8,2.3,28.2,7.4,36.9c7.1,10.4,17.8,15.2,28.8,15.2
		C109.4,239.5,118.2,235.3,124,226.6z"/>
	<path class="st0" d="M179,205.6c0-26.2,22.3-38.2,46.6-44.3c17.8-4.5,34-8.4,45-11.7l0.3-20.4c0-13.9-2.3-21.4-7.1-26.9
		c-5.2-5.5-11.7-7.8-23-7.8c-13.9,0-24,4.9-24,10c0.3,5.8,11.3,9.7,11.3,21.4c0,11.3-8.1,19.7-21.7,19.7c-13.3,0-20.7-9.7-20.7-22
		c0-21.7,28.5-35,58.3-35c23.3,0,38.8,3.9,49.9,12.3c10.7,7.8,16.2,19.7,15.9,35.6l-0.6,80.9c-0.3,12,3.2,17.5,11.3,17.5
		c12.3,0,17.8-15.2,17.8-33h6.5c-0.3,24.3-7.4,44.3-37.9,44.3c-22.7,0-33-11.7-34.6-24.6h-1.3c-8.1,17.2-25.9,24.6-44.7,24.6
		C198.4,246.3,179,231.1,179,205.6z M270.3,206.5l0.3-51.1c-11.3,2.9-24,6.2-33,10.7c-10,4.9-17.5,15.5-17.5,37.2
		c0,22.7,7.1,32,22,32C256.1,235.3,269,223,270.3,206.5z"/>
	<path class="st0" d="M339.6,237.9l89-137.9v-0.6h-39.2c-11.7,0-18.1,3.2-25.9,16.5c-6.2,10-11.3,24-14.2,34h-4.2v-57h126.6v3.6
		l-87.7,138.2v1H426c12.6,0,19.1-5.8,26.2-18.8c5.8-10.7,12-25.2,14.9-34.6h4.2v60.2H339.6V237.9z"/>
	<path class="st0" d="M478.8,205.6c0-26.2,22.3-38.2,46.6-44.3c17.8-4.5,34-8.4,45-11.7l0.3-20.4c0-13.9-2.3-21.4-7.1-26.9
		c-5.2-5.5-11.7-7.8-23-7.8c-13.9,0-24,4.9-24,10c0.3,5.8,11.3,9.7,11.3,21.4c0,11.3-8.1,19.7-21.7,19.7c-13.3,0-20.7-9.7-20.7-22
		c0-21.7,28.5-35,58.3-35c23.3,0,38.8,3.9,49.9,12.3c10.7,7.8,16.2,19.7,15.9,35.6l-0.6,80.9c-0.3,12,3.2,17.5,11.3,17.5
		c11.8,0,17.4-14,17.8-30.8c0-0.7,0.4-1.5,0.4-2.2h6.1c-0.3,24.3-7.4,44.3-37.9,44.3c-22.7,0-33-11.7-34.6-24.6h-1.3
		c-8.1,17.2-25.9,24.6-44.7,24.6C498.2,246.3,478.8,231.1,478.8,205.6z M570.1,206.5l0.3-51.1c-11.3,2.9-24,6.2-33,10.7
		c-10,4.9-17.5,15.5-17.5,37.2c0,22.7,7.1,32,22,32C555.8,235.3,568.8,223,570.1,206.5z"/>
	<path class="st0" d="M638,205.6c0-26.2,22.3-38.2,46.6-44.3c17.8-4.5,34-8.4,45-11.7l0.3-20.4c0-13.9-2.3-21.4-7.1-26.9
		c-5.2-5.5-11.7-7.8-23-7.8c-13.9,0-24,4.9-24,10c0.3,5.8,11.3,9.7,11.3,21.4c0,11.3-8.1,19.7-21.7,19.7c-13.3,0-20.7-9.7-20.7-22
		c0-21.7,28.5-35,58.3-35c23.3,0,38.8,3.9,49.9,12.3c10.7,7.8,16.2,19.7,15.9,35.6l-0.6,80.9c-0.3,12,3.2,17.5,11.3,17.5
		c12.3,0,17.8-15.2,17.8-33h6.5c-0.3,24.3-7.4,44.3-37.9,44.3c-22.7,0-33-11.7-34.6-24.6H730c-8.1,17.2-25.9,24.6-44.7,24.6
		C657.5,246.3,638,231.1,638,205.6z M729.3,206.5l0.3-51.1c-11.3,2.9-24,6.2-33,10.7c-10,4.9-17.5,15.5-17.5,37.2
		c0,22.7,7.1,32,22,32C715.1,235.3,728,223,729.3,206.5z"/>
	<path class="st0" d="M797.6,236.3l18.8-0.3c3.2-0.3,3.9-1.3,3.9-3.9V103.9c0-2.9-0.6-4.2-4.2-4.2l-19.4-1v-5.5l46.9-1.3
		c5.5-0.3,9.4-1,11-1c3.2,0,3.9,1.3,3.9,4.2l0.3,27.8h0.6c7.4-22,24.3-34.6,44-34.6c15.2,0,27.5,10.7,27.5,24.9
		c0,13.3-8.1,23-21.4,23c-12.9,0-20.7-8.1-20.7-19.1c0-7.8,3.9-10.4,3.9-13.9c0-1.6-1-2.9-4.9-2.9c-5.2,0-13.6,7.1-18.5,17.5
		c-6.5,10.7-10,24.9-10,40.5v73.8c0,2.6,0.6,3.9,3.9,3.9l19.1,0.3v6.2h-84.8V236.3z"/>
</g>
</svg>
