<svg width="35" height="35" viewBox="0 0 35 35" fill="none" xmlns="http://www.w3.org/2000/svg">
<path d="M0 1H4.33075L6.7156 10.1221" stroke="black" stroke-width="1.5"/>
<path d="M7.50761 25.25L4.86476 6.75H34.1291L31.3541 25.25H7.50761Z" fill="#EEEEEA" stroke="black" stroke-width="1.5"/>
<path d="M13.7778 31.5972C13.7778 33.0623 12.5902 34.25 11.1251 34.25C9.65998 34.25 8.47229 33.0623 8.47229 31.5972C8.47229 30.1321 9.65998 28.9445 11.1251 28.9445C12.5902 28.9445 13.7778 30.1321 13.7778 31.5972Z" fill="#EEEEEA" stroke="black" stroke-width="1.5"/>
<path d="M30.25 31.5972C30.25 33.0623 29.0623 34.25 27.5972 34.25C26.1321 34.25 24.9445 33.0623 24.9445 31.5972C24.9445 30.1321 26.1321 28.9445 27.5972 28.9445C29.0623 28.9445 30.25 30.1321 30.25 31.5972Z" fill="#EEEEEA" stroke="black" stroke-width="1.5"/>
</svg>
